<svg width="31" height="27" viewBox="0 0 31 27" fill="none" xmlns="http://www.w3.org/2000/svg">
<path fill-rule="evenodd" clip-rule="evenodd" d="M0.495056 1.0392C0.35703 1.04668 0.227399 1.11332 0.13468 1.22445C0.0419614 1.33558 -0.00625053 1.4821 0.000650763 1.63178C0.00755205 1.78146 0.0690012 1.92203 0.17148 2.02258C0.273959 2.12313 0.409073 2.17541 0.547099 2.16793H3.23771L6.28116 19.7694C6.30395 19.8985 6.36758 20.0149 6.46107 20.0985C6.55456 20.1822 6.67205 20.2279 6.79326 20.2276H22.4873C22.4921 20.2284 22.497 20.2292 22.5018 20.2299C22.5192 20.2301 22.5366 20.2293 22.5539 20.2276H22.7235C23.448 20.2276 23.959 20.7581 23.959 21.3563C23.959 21.9546 23.448 22.4851 22.7225 22.4851H6.68709C6.54907 22.4851 6.4167 22.5445 6.3191 22.6504C6.2215 22.7562 6.16667 22.8998 6.16667 23.0494C6.16667 23.1991 6.2215 23.3427 6.3191 23.4485C6.4167 23.5543 6.54907 23.6138 6.68709 23.6138H22.7235C23.9444 23.6138 24.9999 22.6352 24.9999 21.3563C24.9999 20.2141 24.1568 19.3156 23.1055 19.1361L24.9936 6.20878C25.0054 6.12821 25.0009 6.04584 24.9804 5.96734C24.96 5.88884 24.9241 5.81608 24.8752 5.75407C24.8263 5.69206 24.7656 5.64228 24.6973 5.60815C24.629 5.57402 24.5547 5.55636 24.4794 5.55638H4.88225L4.18072 1.49972C4.15843 1.37058 4.09529 1.25392 4.00219 1.16986C3.90908 1.08579 3.79185 1.03958 3.6707 1.0392H0.54814C0.530457 1.03822 0.512739 1.03822 0.495056 1.0392ZM20.316 23.6138C19.4594 23.6138 18.7548 24.378 18.7548 25.3069C18.7548 26.2358 19.4594 27 20.316 27C21.1727 27 21.8773 26.2358 21.8773 25.3069C21.8773 24.378 21.1727 23.6138 20.316 23.6138ZM9.9075 23.6138C9.05087 23.6138 8.34622 24.378 8.34622 25.3069C8.34622 26.2358 9.05087 27 9.9075 27C10.7641 27 11.4688 26.2358 11.4688 25.3069C11.4688 24.378 10.7641 23.6138 9.9075 23.6138ZM5.07793 6.68511H8.38889L8.56167 8.94031H5.46721L5.07793 6.68511ZM9.43183 6.68511H12.5096V8.94031H9.60461L9.43183 6.68511ZM13.5505 6.68511H15.6322V8.94031H13.5505V6.68511ZM16.673 6.68511H19.7508L19.5781 8.94031H16.673V6.68511ZM20.7938 6.68511H23.8695L23.5406 8.94031H20.621L20.7938 6.68511ZM5.66289 10.069H8.6491L8.82189 12.3265H6.05321L5.66289 10.069ZM9.69204 10.069H12.5096V12.3265H9.86482L9.69204 10.069ZM13.5505 10.069H15.6322V12.3265H13.5505V10.069ZM16.673 10.069H19.4906L19.3179 12.3265H16.673V10.069ZM20.5336 10.069H23.3751L23.0462 12.3265H20.3608L20.5336 10.069ZM6.24785 13.4552H8.90932L9.0821 15.7127H6.63817L6.24785 13.4552ZM9.95225 13.4552H12.5096V15.7127H10.125L9.95225 13.4552ZM13.5505 13.4552H15.6322V15.7127H13.5505V13.4552ZM16.673 13.4552H19.2304L19.0576 15.7127H16.673V13.4552ZM20.2734 13.4552H22.8817L22.5518 15.7127H20.1006L20.2734 13.4552ZM6.83385 16.8414H9.16745L9.34231 19.0989H7.22417L6.83385 16.8414ZM10.2125 16.8414H12.5096V19.0989H10.3852L10.2125 16.8414ZM13.5505 16.8414H15.6322V19.0989H13.5505V16.8414ZM16.673 16.8414H18.9702L18.7974 19.0989H16.673V16.8414ZM20.0142 16.8414H22.3873L22.0563 19.0989H19.8404L20.0152 16.8414H20.0142ZM9.9075 24.7425C10.201 24.7425 10.4279 24.9886 10.4279 25.3069C10.4279 25.6252 10.201 25.8713 9.9075 25.8713C9.83888 25.8723 9.77077 25.8585 9.70718 25.8305C9.6436 25.8025 9.58584 25.761 9.53731 25.7083C9.48879 25.6557 9.45049 25.5931 9.42468 25.5241C9.39888 25.4552 9.38609 25.3813 9.38707 25.3069C9.38707 24.9886 9.61397 24.7425 9.9075 24.7425ZM20.316 24.7425C20.6096 24.7425 20.8365 24.9886 20.8365 25.3069C20.8365 25.6252 20.6096 25.8713 20.316 25.8713C20.2474 25.8723 20.1793 25.8585 20.1157 25.8305C20.0521 25.8025 19.9944 25.761 19.9458 25.7083C19.8973 25.6557 19.859 25.5931 19.8332 25.5241C19.8074 25.4552 19.7946 25.3813 19.7956 25.3069C19.7956 24.9886 20.0225 24.7425 20.316 24.7425Z" fill="url(#paint0_linear_0_40894)"/>
<path opacity="0.173224" fill-rule="evenodd" clip-rule="evenodd" d="M22 18.6923C26.9706 18.6923 31 14.5079 31 9.34615C31 4.18442 26.9706 0 22 0C17.0294 0 13 4.18442 13 9.34615C13 14.5079 17.0294 18.6923 22 18.6923Z" fill="#F93C65" fill-opacity="0.613691"/>
<path fill-rule="evenodd" clip-rule="evenodd" d="M22 17.6538C26.4183 17.6538 30 13.9344 30 9.34615C30 4.75794 26.4183 1.03846 22 1.03846C17.5817 1.03846 14 4.75794 14 9.34615C14 13.9344 17.5817 17.6538 22 17.6538Z" fill="#F93C65"/>
<path fill-rule="evenodd" clip-rule="evenodd" d="M22 17.6538C26.4183 17.6538 30 13.9344 30 9.34615C30 4.75794 26.4183 1.03846 22 1.03846C17.5817 1.03846 14 4.75794 14 9.34615C14 13.9344 17.5817 17.6538 22 17.6538Z" fill="#F93C65"/>
<path d="M21.912 13.1585C20.864 13.1585 20.052 12.7905 19.476 12.0545C18.908 11.3185 18.624 10.2865 18.624 8.95846C18.624 7.52646 18.944 6.41846 19.584 5.63446C20.232 4.85046 21.124 4.45846 22.26 4.45846C22.708 4.45846 23.152 4.54246 23.592 4.71046C24.032 4.87046 24.408 5.10246 24.72 5.40646L24.216 6.55846C23.92 6.28646 23.604 6.08646 23.268 5.95846C22.932 5.82246 22.588 5.75446 22.236 5.75446C21.54 5.75446 21.008 5.99846 20.64 6.48646C20.272 6.97446 20.088 7.70246 20.088 8.67046V9.01846C20.256 8.57846 20.528 8.23446 20.904 7.98646C21.28 7.73846 21.712 7.61446 22.2 7.61446C22.688 7.61446 23.12 7.73046 23.496 7.96246C23.872 8.19446 24.168 8.51446 24.384 8.92246C24.6 9.33046 24.708 9.79846 24.708 10.3265C24.708 10.8705 24.588 11.3585 24.348 11.7905C24.116 12.2145 23.788 12.5505 23.364 12.7985C22.948 13.0385 22.464 13.1585 21.912 13.1585ZM21.828 11.9345C22.26 11.9345 22.608 11.7945 22.872 11.5145C23.144 11.2265 23.28 10.8505 23.28 10.3865C23.28 9.92246 23.144 9.54646 22.872 9.25846C22.608 8.97046 22.26 8.82646 21.828 8.82646C21.396 8.82646 21.044 8.97046 20.772 9.25846C20.508 9.54646 20.376 9.92246 20.376 10.3865C20.376 10.8505 20.508 11.2265 20.772 11.5145C21.044 11.7945 21.396 11.9345 21.828 11.9345Z" fill="white"/>
<defs>
<linearGradient id="paint0_linear_0_40894" x1="0.000650752" y1="14.0196" x2="21.8773" y2="14.0196" gradientUnits="userSpaceOnUse">
<stop stop-color="#000092"/>
<stop offset="1" stop-color="#FF00F3"/>
</linearGradient>
</defs>
</svg>
