<svg width="26" height="27" viewBox="0 0 26 27" fill="none" xmlns="http://www.w3.org/2000/svg">
<path fill-rule="evenodd" clip-rule="evenodd" d="M9.33917 4.42623C7.0462 4.42623 5.11991 6.15034 4.86669 8.42929L3.98361 16.377H1.5C0.671573 16.377 0 17.0486 0 17.8771V18.8607C0 19.6891 0.671572 20.3607 1.5 20.3607H19.7459C20.5743 20.3607 21.2459 19.6891 21.2459 18.8607V17.877C21.2459 17.0486 20.5743 16.377 19.7459 16.377H17.2623L16.3792 8.42929C16.126 6.15034 14.1997 4.42623 11.9067 4.42623H9.33917Z" fill="#4880FF"/>
<rect opacity="0.3" x="7.96716" y="21.6885" width="5.31148" height="5.31148" rx="2.25" fill="#FF0000"/>
<path fill-rule="evenodd" clip-rule="evenodd" d="M18.5901 14.1639C22.5014 14.1639 25.6721 10.9932 25.6721 7.08197C25.6721 3.1707 22.5014 0 18.5901 0C14.6789 0 11.5082 3.1707 11.5082 7.08197C11.5082 10.9932 14.6789 14.1639 18.5901 14.1639Z" fill="#F93C65"/>
<path d="M18.9612 12.12C17.9132 12.12 17.1012 11.752 16.5252 11.016C15.9572 10.28 15.6732 9.248 15.6732 7.92C15.6732 6.488 15.9932 5.38 16.6332 4.596C17.2812 3.812 18.1732 3.42 19.3092 3.42C19.7572 3.42 20.2012 3.504 20.6412 3.672C21.0812 3.832 21.4572 4.064 21.7692 4.368L21.2652 5.52C20.9692 5.248 20.6532 5.048 20.3172 4.92C19.9812 4.784 19.6372 4.716 19.2852 4.716C18.5892 4.716 18.0572 4.96 17.6892 5.448C17.3212 5.936 17.1372 6.664 17.1372 7.632V7.98C17.3052 7.54 17.5772 7.196 17.9532 6.948C18.3292 6.7 18.7612 6.576 19.2492 6.576C19.7372 6.576 20.1692 6.692 20.5452 6.924C20.9212 7.156 21.2172 7.476 21.4332 7.884C21.6492 8.292 21.7572 8.76 21.7572 9.288C21.7572 9.832 21.6372 10.32 21.3972 10.752C21.1652 11.176 20.8372 11.512 20.4132 11.76C19.9972 12 19.5132 12.12 18.9612 12.12ZM18.8772 10.896C19.3092 10.896 19.6572 10.756 19.9212 10.476C20.1932 10.188 20.3292 9.812 20.3292 9.348C20.3292 8.884 20.1932 8.508 19.9212 8.22C19.6572 7.932 19.3092 7.788 18.8772 7.788C18.4452 7.788 18.0932 7.932 17.8212 8.22C17.5572 8.508 17.4252 8.884 17.4252 9.348C17.4252 9.812 17.5572 10.188 17.8212 10.476C18.0932 10.756 18.4452 10.896 18.8772 10.896Z" fill="white"/>
</svg>
