<svg width="31" height="27" viewBox="0 0 31 27" fill="none" xmlns="http://www.w3.org/2000/svg">
<g clip-path="url(#clip0_2225_31505)">
<path d="M1.04175 14.5C1.04175 6.16667 4.16675 3.04167 12.5001 3.04167C20.8334 3.04167 23.9584 6.16667 23.9584 14.5C23.9584 22.8333 20.8334 25.9583 12.5001 25.9583C4.16675 25.9583 1.04175 22.8333 1.04175 14.5Z" fill="#0BA1E6"/>
<path d="M17.7083 9.625H7.29167C7.05837 9.61944 6.82632 9.6606 6.60917 9.74606C6.39202 9.83151 6.19415 9.95954 6.02721 10.1226C5.86026 10.2857 5.72762 10.4805 5.63708 10.6955C5.54654 10.9106 5.49993 11.1416 5.5 11.375V17.625C5.49993 17.8584 5.54654 18.0894 5.63708 18.3045C5.72762 18.5195 5.86026 18.7143 6.02721 18.8774C6.19415 19.0405 6.39202 19.1685 6.60917 19.2539C6.82632 19.3394 7.05837 19.3806 7.29167 19.375H8.33333V21.375L9.59375 19.375H17.7083C17.9416 19.3806 18.1737 19.3394 18.3908 19.2539C18.608 19.1685 18.8059 19.0405 18.9728 18.8774C19.1397 18.7143 19.2724 18.5195 19.3629 18.3045C19.4535 18.0894 19.5001 17.8584 19.5 17.625V11.375C19.5001 11.1416 19.4535 10.9106 19.3629 10.6955C19.2724 10.4805 19.1397 10.2857 18.9728 10.1226C18.8059 9.95954 18.608 9.83151 18.3908 9.74606C18.1737 9.6606 17.9416 9.61944 17.7083 9.625Z" fill="white"/>
<path d="M8.75 15.75C8.50277 15.75 8.2611 15.6767 8.05554 15.5393C7.84998 15.402 7.68976 15.2068 7.59515 14.9784C7.50054 14.7499 7.47579 14.4986 7.52402 14.2561C7.57225 14.0137 7.6913 13.7909 7.86612 13.6161C8.04093 13.4413 8.26366 13.3223 8.50614 13.274C8.74861 13.2258 8.99995 13.2505 9.22836 13.3452C9.45676 13.4398 9.65199 13.6 9.78934 13.8055C9.92669 14.0111 10 14.2528 10 14.5C10 14.8315 9.8683 15.1495 9.63388 15.3839C9.39946 15.6183 9.08152 15.75 8.75 15.75ZM12.5 15.75C12.2528 15.75 12.0111 15.6767 11.8055 15.5393C11.6 15.402 11.4398 15.2068 11.3452 14.9784C11.2505 14.7499 11.2258 14.4986 11.274 14.2561C11.3223 14.0137 11.4413 13.7909 11.6161 13.6161C11.7909 13.4413 12.0137 13.3223 12.2561 13.274C12.4986 13.2258 12.7499 13.2505 12.9784 13.3452C13.2068 13.4398 13.402 13.6 13.5393 13.8055C13.6767 14.0111 13.75 14.2528 13.75 14.5C13.75 14.8315 13.6183 15.1495 13.3839 15.3839C13.1495 15.6183 12.8315 15.75 12.5 15.75ZM16.25 15.75C16.0028 15.75 15.7611 15.6767 15.5555 15.5393C15.35 15.402 15.1898 15.2068 15.0952 14.9784C15.0005 14.7499 14.9758 14.4986 15.024 14.2561C15.0723 14.0137 15.1913 13.7909 15.3661 13.6161C15.5409 13.4413 15.7637 13.3223 16.0061 13.274C16.2486 13.2258 16.4999 13.2505 16.7284 13.3452C16.9568 13.4398 17.152 13.6 17.2893 13.8055C17.4267 14.0111 17.5 14.2528 17.5 14.5C17.5 14.8315 17.3683 15.1495 17.1339 15.3839C16.8995 15.6183 16.5815 15.75 16.25 15.75Z" fill="#005DB1"/>
</g>
<path opacity="0.173224" fill-rule="evenodd" clip-rule="evenodd" d="M22 18C26.9706 18 31 13.9706 31 9C31 4.02944 26.9706 0 22 0C17.0294 0 13 4.02944 13 9C13 13.9706 17.0294 18 22 18Z" fill="#F93C65" fill-opacity="0.613691"/>
<path fill-rule="evenodd" clip-rule="evenodd" d="M22 17C26.4183 17 30 13.4183 30 9C30 4.58172 26.4183 1 22 1C17.5817 1 14 4.58172 14 9C14 13.4183 17.5817 17 22 17Z" fill="#F93C65"/>
<path fill-rule="evenodd" clip-rule="evenodd" d="M22 17C26.4183 17 30 13.4183 30 9C30 4.58172 26.4183 1 22 1C17.5817 1 14 4.58172 14 9C14 13.4183 17.5817 17 22 17Z" fill="#F93C65"/>
<path d="M21.912 13.12C20.864 13.12 20.052 12.752 19.476 12.016C18.908 11.28 18.624 10.248 18.624 8.92C18.624 7.488 18.944 6.38 19.584 5.596C20.232 4.812 21.124 4.42 22.26 4.42C22.708 4.42 23.152 4.504 23.592 4.672C24.032 4.832 24.408 5.064 24.72 5.368L24.216 6.52C23.92 6.248 23.604 6.048 23.268 5.92C22.932 5.784 22.588 5.716 22.236 5.716C21.54 5.716 21.008 5.96 20.64 6.448C20.272 6.936 20.088 7.664 20.088 8.632V8.98C20.256 8.54 20.528 8.196 20.904 7.948C21.28 7.7 21.712 7.576 22.2 7.576C22.688 7.576 23.12 7.692 23.496 7.924C23.872 8.156 24.168 8.476 24.384 8.884C24.6 9.292 24.708 9.76 24.708 10.288C24.708 10.832 24.588 11.32 24.348 11.752C24.116 12.176 23.788 12.512 23.364 12.76C22.948 13 22.464 13.12 21.912 13.12ZM21.828 11.896C22.26 11.896 22.608 11.756 22.872 11.476C23.144 11.188 23.28 10.812 23.28 10.348C23.28 9.884 23.144 9.508 22.872 9.22C22.608 8.932 22.26 8.788 21.828 8.788C21.396 8.788 21.044 8.932 20.772 9.22C20.508 9.508 20.376 9.884 20.376 10.348C20.376 10.812 20.508 11.188 20.772 11.476C21.044 11.756 21.396 11.896 21.828 11.896Z" fill="white"/>
<defs>
<clipPath id="clip0_2225_31505">
<rect width="25" height="25" fill="white" transform="translate(0 2)"/>
</clipPath>
</defs>
</svg>
